<svg width="79" height="87" viewBox="0 0 79 87" fill="none" xmlns="http://www.w3.org/2000/svg">
<path d="M32.0937 40.0938V80.8281C32.0882 81.316 32.1801 81.8 32.3643 82.2518C32.5484 82.7036 32.8209 83.1141 33.1659 83.4591C33.5109 83.8041 33.9214 84.0766 34.3732 84.2607C34.825 84.4449 35.309 84.5368 35.7969 84.5312C36.2847 84.5368 36.7688 84.4449 37.2206 84.2607C37.6724 84.0766 38.0828 83.8041 38.4278 83.4591C38.7728 83.1141 39.0454 82.7036 39.2295 82.2518C39.4136 81.8 39.5056 81.316 39.5 80.8281" stroke="black" stroke-width="4.9375" stroke-miterlimit="10" stroke-linecap="round"/>
<path d="M39.5 59.8438V80.8281C39.4944 81.316 39.5864 81.8 39.7705 82.2518C39.9546 82.7036 40.2272 83.1141 40.5722 83.4591C40.9172 83.8041 41.3276 84.0766 41.7794 84.2607C42.2312 84.4449 42.7153 84.5368 43.2031 84.5312C43.691 84.5368 44.175 84.4449 44.6268 84.2607C45.0786 84.0766 45.4891 83.8041 45.8341 83.4591C46.1791 83.1141 46.4516 82.7036 46.6357 82.2518C46.8199 81.8 46.9118 81.316 46.9062 80.8281V40.0938" stroke="black" stroke-width="4.9375" stroke-miterlimit="10" stroke-linecap="round"/>
<path d="M32.0938 37.625V51.2031C32.0996 51.691 32.0077 52.1752 31.8237 52.6271C31.6396 53.079 31.3671 53.4895 31.0221 53.8345C30.677 54.1796 30.2665 54.4521 29.8146 54.6362C29.3627 54.8202 28.8785 54.912 28.3906 54.9062C27.9027 54.912 27.4186 54.8202 26.9667 54.6362C26.5148 54.4521 26.1042 54.1796 25.7592 53.8345C25.4142 53.4895 25.1416 53.079 24.9576 52.6271C24.7735 52.1752 24.6817 51.691 24.6875 51.2031V37.625C24.6875 35.6607 25.4678 33.7769 26.8568 32.388C28.2457 30.999 30.1295 30.2188 32.0938 30.2188H46.9063C48.8705 30.2188 50.7543 30.999 52.1433 32.388C53.5322 33.7769 54.3125 35.6607 54.3125 37.625V51.2031C54.3183 51.691 54.2265 52.1752 54.0424 52.6271C53.8584 53.079 53.5858 53.4895 53.2408 53.8345C52.8958 54.1796 52.4852 54.4521 52.0333 54.6362C51.5814 54.8202 51.0973 54.912 50.6094 54.9062C50.1215 54.912 49.6373 54.8202 49.1854 54.6362C48.7335 54.4521 48.323 54.1796 47.978 53.8345C47.6329 53.4895 47.3604 53.079 47.1763 52.6271C46.9923 52.1752 46.9005 51.691 46.9063 51.2031V37.625" stroke="black" stroke-width="4.9375" stroke-miterlimit="10" stroke-linecap="round"/>
<path d="M39.5 22.8125C42.9086 22.8125 45.6719 20.0493 45.6719 16.6406C45.6719 13.232 42.9086 10.4688 39.5 10.4688C36.0914 10.4688 33.3281 13.232 33.3281 16.6406C33.3281 20.0493 36.0914 22.8125 39.5 22.8125Z" stroke="black" stroke-width="4.9375" stroke-miterlimit="10" stroke-linecap="round"/>
<path d="M39.7196 0C40.1722 0.022153 40.3027 0.125703 40.6215 0.501384C40.7347 0.66436 40.8463 0.82884 40.9564 0.99448C41.0167 1.08226 41.077 1.17004 41.1392 1.26048C41.3349 1.54628 41.5285 1.8339 41.7221 2.12156C41.8578 2.32041 41.9937 2.51913 42.1298 2.71773C42.7459 3.61895 43.355 4.52593 43.9601 5.43649C44.4168 5.19216 44.7957 4.86991 45.1896 4.5166C45.2617 4.45247 45.3337 4.38834 45.408 4.32227C45.9102 3.87268 46.4021 3.41076 46.8902 2.942C47.8041 2.06776 47.8041 2.06776 48.1491 1.75692C48.2173 1.6947 48.2855 1.63248 48.3557 1.56838C48.5541 1.45857 48.5541 1.45857 48.8149 1.50622C48.8843 1.53426 48.9537 1.56229 49.0252 1.59117C48.9231 2.75844 48.791 3.90704 48.5761 5.05527C48.3598 6.21278 48.1874 7.37606 48.024 8.54424C47.8095 10.0744 47.5724 11.597 47.3057 13.1168C47.22 13.6154 47.1441 14.116 47.0692 14.6168C47.0228 14.8509 47.0228 14.8509 46.905 14.9835C46.7246 14.9962 46.5438 14.9997 46.3631 14.9994C46.1874 14.9997 46.1874 14.9997 46.0082 15C45.8787 14.9995 45.7491 14.999 45.6157 14.9986C45.4801 14.9986 45.3445 14.9986 45.2048 14.9986C44.7542 14.9985 44.3036 14.9975 43.8529 14.9965C43.5415 14.9962 43.23 14.996 42.9185 14.9959C42.181 14.9955 41.4434 14.9944 40.7059 14.9931C39.8664 14.9916 39.0269 14.9908 38.1874 14.9902C36.4601 14.9888 34.7328 14.9865 33.0054 14.9835C32.7709 13.687 32.5508 12.3889 32.3465 11.0859C32.3189 10.9101 32.2912 10.7343 32.2634 10.5586C32.2059 10.1935 32.1485 9.82835 32.0912 9.4632C32.019 9.00273 31.9465 8.54231 31.8739 8.08191C31.7236 7.12917 31.5744 6.17624 31.4262 5.22309C31.3822 4.94008 31.3381 4.65711 31.2938 4.37417C31.2416 4.04003 31.1902 3.70575 31.1392 3.37139C31.1248 3.28008 31.1104 3.18876 31.0956 3.09468C31.0194 2.58804 30.99 2.10476 31.003 1.59117C31.1935 1.48395 31.1935 1.48395 31.4741 1.45857C31.7373 1.66688 31.9602 1.87037 32.1956 2.11327C32.3329 2.24964 32.4704 2.38586 32.6079 2.52194C32.6755 2.58956 32.743 2.65719 32.8126 2.72686C33.1615 3.07118 33.5272 3.39125 33.8912 3.7148C34.1041 3.90653 34.3145 4.10178 34.5234 4.29906C34.6371 4.4064 34.7509 4.51374 34.868 4.62433C35.0222 4.7715 35.0222 4.7715 35.1795 4.92164C35.47 5.16373 35.7276 5.30575 36.068 5.43649C36.151 5.31103 36.2339 5.18557 36.3193 5.05631C37.0561 3.94431 37.803 2.84219 38.5641 1.75102C38.9631 1.17736 39.3473 0.596078 39.7196 0Z" fill="black"/>
</svg>
